<mxfile host="Electron" modified="2023-12-03T10:30:56.192Z" agent="Mozilla/5.0 (Windows NT 10.0; Win64; x64) AppleWebKit/537.36 (KHTML, like Gecko) draw.io/22.0.3 Chrome/114.0.5735.289 Electron/25.8.4 Safari/537.36" etag="Wmp2qhtxxwSY-7TyYVNu" version="22.0.3" type="device">
  <diagram id="C5RBs43oDa-KdzZeNtuy" name="Page-1">
    <mxGraphModel dx="1036" dy="606" grid="1" gridSize="10" guides="1" tooltips="1" connect="1" arrows="1" fold="1" page="1" pageScale="1" pageWidth="827" pageHeight="1169" math="0" shadow="0">
      <root>
        <mxCell id="WIyWlLk6GJQsqaUBKTNV-0" />
        <mxCell id="WIyWlLk6GJQsqaUBKTNV-1" parent="WIyWlLk6GJQsqaUBKTNV-0" />
        <mxCell id="1cHVhNMbaeSQqH-X-qNr-2" value="" style="edgeStyle=orthogonalEdgeStyle;rounded=0;orthogonalLoop=1;jettySize=auto;html=1;" parent="WIyWlLk6GJQsqaUBKTNV-1" source="1cHVhNMbaeSQqH-X-qNr-0" target="1cHVhNMbaeSQqH-X-qNr-1" edge="1">
          <mxGeometry relative="1" as="geometry" />
        </mxCell>
        <mxCell id="1cHVhNMbaeSQqH-X-qNr-0" value="Start" style="ellipse;whiteSpace=wrap;html=1;" parent="WIyWlLk6GJQsqaUBKTNV-1" vertex="1">
          <mxGeometry x="354" width="120" height="80" as="geometry" />
        </mxCell>
        <mxCell id="1cHVhNMbaeSQqH-X-qNr-4" value="" style="edgeStyle=orthogonalEdgeStyle;rounded=0;orthogonalLoop=1;jettySize=auto;html=1;entryX=0.5;entryY=0;entryDx=0;entryDy=0;" parent="WIyWlLk6GJQsqaUBKTNV-1" source="1cHVhNMbaeSQqH-X-qNr-1" target="Jv34LkYGibCgZs0eEaYd-3" edge="1">
          <mxGeometry relative="1" as="geometry">
            <mxPoint x="414" y="230" as="targetPoint" />
          </mxGeometry>
        </mxCell>
        <mxCell id="1cHVhNMbaeSQqH-X-qNr-1" value="Struct Student student {&lt;br&gt;fullName[50]; age; phoneNumber; email}" style="whiteSpace=wrap;html=1;" parent="WIyWlLk6GJQsqaUBKTNV-1" vertex="1">
          <mxGeometry x="304" y="130" width="220" height="80" as="geometry" />
        </mxCell>
        <mxCell id="Jv34LkYGibCgZs0eEaYd-5" value="" style="edgeStyle=orthogonalEdgeStyle;rounded=0;orthogonalLoop=1;jettySize=auto;html=1;" edge="1" parent="WIyWlLk6GJQsqaUBKTNV-1" source="Jv34LkYGibCgZs0eEaYd-3" target="Jv34LkYGibCgZs0eEaYd-4">
          <mxGeometry relative="1" as="geometry" />
        </mxCell>
        <mxCell id="Jv34LkYGibCgZs0eEaYd-3" value="Insert(struct Student *student)" style="rounded=0;whiteSpace=wrap;html=1;" vertex="1" parent="WIyWlLk6GJQsqaUBKTNV-1">
          <mxGeometry x="354" y="260" width="120" height="60" as="geometry" />
        </mxCell>
        <mxCell id="Jv34LkYGibCgZs0eEaYd-7" value="" style="edgeStyle=orthogonalEdgeStyle;rounded=0;orthogonalLoop=1;jettySize=auto;html=1;" edge="1" parent="WIyWlLk6GJQsqaUBKTNV-1" source="Jv34LkYGibCgZs0eEaYd-4" target="Jv34LkYGibCgZs0eEaYd-6">
          <mxGeometry relative="1" as="geometry" />
        </mxCell>
        <mxCell id="Jv34LkYGibCgZs0eEaYd-4" value="Nhap du lieu" style="whiteSpace=wrap;html=1;rounded=0;" vertex="1" parent="WIyWlLk6GJQsqaUBKTNV-1">
          <mxGeometry x="354" y="360" width="120" height="60" as="geometry" />
        </mxCell>
        <mxCell id="Jv34LkYGibCgZs0eEaYd-6" value="print(struct Student student)" style="whiteSpace=wrap;html=1;rounded=0;" vertex="1" parent="WIyWlLk6GJQsqaUBKTNV-1">
          <mxGeometry x="354" y="460" width="120" height="60" as="geometry" />
        </mxCell>
      </root>
    </mxGraphModel>
  </diagram>
</mxfile>
